<svg xmlns="http://www.w3.org/2000/svg" viewBox="0 0 88 75"><defs><style>.cls-1{fill:#fd5000;}.cls-2{fill:none;stroke:#fd5000;stroke-linecap:round;stroke-linejoin:round;stroke-width:4px;}</style></defs><title>barraLaranga</title><g id="Login"><path class="cls-1" d="M27.4,36.39V22.86h7v2.25H29.91v3.13h4.14v2.14H29.91v3.73h4.55v2.28Z"/><path class="cls-1" d="M36.31,36.39V22.86h2.6l3.52,9.47-.07-9.47h2.38V36.39H42.17l-3.55-9.48.07,9.48Z"/><path class="cls-1" d="M49,36.39V25.09h-2.9V22.86h8.32v2.23h-2.9v11.3Z"/><path class="cls-1" d="M55.72,36.39V22.86h4.52a4.31,4.31,0,0,1,2.95.83,3.54,3.54,0,0,1,.9,2.71,3.79,3.79,0,0,1-.49,2.08,1.9,1.9,0,0,1-1.42.89c1.2.32,1.82,1.33,1.87,3v.18l.07,1.79a4.62,4.62,0,0,0,.2,1.23,1.85,1.85,0,0,0,.49.79h-3a4.7,4.7,0,0,1-.16-.8c0-.31-.06-.74-.07-1.3l0-1.42v-.36a2.08,2.08,0,0,0-.51-1.62,3.27,3.27,0,0,0-2-.44h-.87v5.94Zm2.43-7.81H59.6a2.1,2.1,0,0,0,1.53-.44,2.27,2.27,0,0,0,.43-1.57,1.81,1.81,0,0,0-.47-1.42,2.66,2.66,0,0,0-1.7-.4H58.15Z"/><path class="cls-1" d="M65.12,36.39l3-13.53h3.38l3.07,13.53H71.91L71.24,33h-2.9l-.65,3.4ZM68.74,31h2.14L69.8,25.29Z"/><path class="cls-1" d="M76,36.39V22.86h4.52a4.31,4.31,0,0,1,3,.83,3.54,3.54,0,0,1,.9,2.71,3.88,3.88,0,0,1-.48,2.08,1.93,1.93,0,0,1-1.43.89c1.2.32,1.82,1.33,1.87,3v.18l.07,1.79a4.62,4.62,0,0,0,.2,1.23,2,2,0,0,0,.49.79h-3a4.7,4.7,0,0,1-.16-.8c0-.31-.06-.74-.07-1.3l0-1.42v-.36a2.12,2.12,0,0,0-.5-1.62,3.33,3.33,0,0,0-2-.44h-.86v5.94Zm2.44-7.81h1.45a2.09,2.09,0,0,0,1.52-.44,2.22,2.22,0,0,0,.43-1.57,1.81,1.81,0,0,0-.47-1.42,2.63,2.63,0,0,0-1.69-.4H78.39Z"/><line class="cls-2" x1="2.75" y1="6.38" x2="2.75" y2="69.38"/></g></svg>