<svg xmlns="http://www.w3.org/2000/svg" viewBox="0 0 106 57"><defs><style>.cls-1{fill:#fff;}</style></defs><title>iso</title><g id="Sistema"><path class="cls-1" d="M104.25,29.23a.86.86,0,0,1,0-.28v-.38a5.09,5.09,0,0,0,0-.78,21.54,21.54,0,0,0-.61-3.56,22.76,22.76,0,0,0-2.22-5.55A23.28,23.28,0,0,0,97,13.05a28.47,28.47,0,0,0-2.32-1.92,22.43,22.43,0,0,0-3.91-2.28,22.14,22.14,0,0,0-4.48-1.53,18.27,18.27,0,0,0-4.1-.52h-.5a4.24,4.24,0,0,1-.62,0H27.88a1.83,1.83,0,0,1-.47,0H26.8c-.66,0-1.32,0-2,.08a19.24,19.24,0,0,0-3.68.68,22.7,22.7,0,0,0-6.43,2.89A23.26,23.26,0,0,0,7,18.89a22.9,22.9,0,0,0-2.19,5.86,17.4,17.4,0,0,0-.51,3.87V29a.88.88,0,0,1,0,.28v1.38a.88.88,0,0,1,0,.28v.42a5.9,5.9,0,0,0,0,.84,20.81,20.81,0,0,0,.44,2.83,23.06,23.06,0,0,0,6.65,11.83,22.91,22.91,0,0,0,9.27,5.41,18.1,18.1,0,0,0,2.08.53,23.45,23.45,0,0,0,4.43.37H28a8.42,8.42,0,0,1,.87,0H81.84c.08,0,.17,0,.26,0s.14,0,.21,0h.08s.06,0,.09,0a13.56,13.56,0,0,0,1.68-.12A23.25,23.25,0,0,0,97,47a23.82,23.82,0,0,0,2.61-2.89,24.08,24.08,0,0,0,2.63-4.39,23.39,23.39,0,0,0,1.59-4.81,16.26,16.26,0,0,0,.44-3.48V31a.82.82,0,0,1,0-.27Zm-76.9,21.9a21.17,21.17,0,1,1,21.44-21A21.17,21.17,0,0,1,27.35,51.13Zm74.83-20.85A21.23,21.23,0,0,1,86.32,50.49a18.92,18.92,0,0,1-4.67.65q-5.91,0-11.8,0H37.48A23.21,23.21,0,0,0,49.29,38.59a22.59,22.59,0,0,0,0-17.19A23.19,23.19,0,0,0,37.45,8.87H78.81c1.16,0,2.32,0,3.48,0a21.05,21.05,0,0,1,13.37,5.85,21,21,0,0,1,6.08,11A20.16,20.16,0,0,1,102.18,30.28Z"/><path class="cls-1" d="M57.29,13.25a9.3,9.3,0,0,1,1.17.13.11.11,0,0,1,.1.14.11.11,0,0,0,0,.05c0,.16,0,.37-.11.47s-.29,0-.44,0a4.11,4.11,0,0,0-1.31,0c-.35.07-.55.25-.58.53a.66.66,0,0,0,.4.73,5.33,5.33,0,0,0,.87.32,3.53,3.53,0,0,1,.7.28,1.35,1.35,0,0,1,.73,1.41,1.39,1.39,0,0,1-.94,1.26,3.08,3.08,0,0,1-1.38.14c-.34,0-.68-.07-1-.11-.12,0-.17-.06-.14-.19s0-.4.11-.48.32,0,.49,0a4,4,0,0,0,1.42,0,.76.76,0,0,0,.65-.83.7.7,0,0,0-.41-.58,7,7,0,0,0-1-.35,2.44,2.44,0,0,1-.85-.43,1.31,1.31,0,0,1-.43-1.33,1.32,1.32,0,0,1,1-1A2.74,2.74,0,0,1,57.29,13.25Z"/><path class="cls-1" d="M59,21.52c-.73,1.19-1.42,2.36-2.1,3.58h1.53c.12,0,.09-.09.1-.15,0-.3,0-.59,0-.88,0-.12,0-.16.17-.15h.45c.1,0,.13,0,.13.13,0,.31,0,.62,0,.93,0,.1,0,.13.13.13h.63c.09,0,.12,0,.13.12,0,.59,0,.59-.55.59-.33,0-.33,0-.33.33,0,.18,0,.37,0,.55s0,.12-.11.11h0c-.22,0-.5.07-.63,0s0-.39,0-.6c0-.36,0-.36-.37-.36h-2c-.13,0-.16,0-.17-.17a1.43,1.43,0,0,1,.22-.85c.58-1.05,1.19-2.09,1.79-3.13a.25.25,0,0,1,.26-.14C58.54,21.53,58.76,21.52,59,21.52Z"/><path class="cls-1" d="M54.23,37c0,.94-.08,1.88-.11,2.82,0,.18-.08.19-.22.19-.37,0-.37,0-.36-.37.05-1.08.11-2.17.15-3.25,0-.16.06-.2.21-.19s.48-.08.63,0,.16.38.22.57c.22.63.44,1.26.68,1.93.16-.46.31-.88.45-1.3s.26-.74.38-1.11a.17.17,0,0,1,.19-.13H57c.14,0,.17,0,.18.17,0,1.06.09,2.12.14,3.18,0,.11,0,.22,0,.33s0,.12-.13.13c-.46,0-.45,0-.46-.44,0-.79-.07-1.58-.1-2.37,0-.06,0-.11-.07-.14L56,38.63l-.22.63a.15.15,0,0,1-.16.12c-.49,0-.49,0-.66-.45s-.43-1.2-.65-1.81c0,0,0-.08,0-.12Z"/><path class="cls-1" d="M72.46,37.5a1.93,1.93,0,0,1,.65-.26.83.83,0,0,1,.8.25c.07.08.11,0,.17,0a1.27,1.27,0,0,1,1-.25.78.78,0,0,1,.7.76c.05.63,0,1.27,0,1.9,0,.09,0,.11-.11.12-.44,0-.44,0-.44-.4V38.27c0-.45-.22-.62-.65-.53l-.14,0c-.28.09-.28.1-.27.39v1.71c0,.1,0,.15-.14.15-.4,0-.4,0-.4-.39V38.31c0-.5-.22-.68-.71-.56s-.35.08-.35.43c0,.56,0,1.12,0,1.68,0,.13,0,.16-.16.16C72,40,72,40,72,39.63V37.49c0-.07-.08-.21.09-.2s.34-.1.35.17Z"/><path class="cls-1" d="M71.66,31a1.37,1.37,0,0,1,1-.28.7.7,0,0,1,.46.23c.08.1.12.08.2,0a1.22,1.22,0,0,1,1.06-.22.76.76,0,0,1,.59.76c0,.64,0,1.27,0,1.91,0,0,0,.09,0,.09h-.46c-.08,0,0-.1,0-.15,0-.53,0-1.07,0-1.61s-.21-.61-.65-.52h0c-.35.08-.36.1-.35.45,0,.56,0,1.12,0,1.69,0,.12,0,.13-.15.14-.4,0-.4,0-.4-.4V31.69c0-.42-.2-.58-.61-.51h0c-.43.08-.43.09-.43.51s0,1.07,0,1.61c0,.13,0,.18-.17.18-.37,0-.37,0-.37-.37V30.93c0-.07-.07-.21.1-.2s.32-.1.33.16A.15.15,0,0,1,71.66,31Z"/><path class="cls-1" d="M54.23,22.33c-.33.12-.64.23-.95.36-.13.06-.17,0-.22-.1-.17-.38-.17-.38.2-.57s.62-.31.94-.45a2,2,0,0,1,.77-.05c.09,0,.05.1.05.15v1.39c0,1.18,0,2.36,0,3.54,0,.18-.05.22-.22.2a2.8,2.8,0,0,0-.41,0c-.14,0-.17,0-.17-.16V22.33Z"/><path class="cls-1" d="M53.61,31.56V29.81c0-.12,0-.15.15-.15h2c.11,0,.14,0,.15.13,0,.38,0,.38-.36.38H54.35c-.12,0-.18,0-.17.15s0,.53,0,.79,0,.14.15.14h1.1c.1,0,.14,0,.14.14,0,.38,0,.38-.36.38h-.88c-.11,0-.15,0-.15.14,0,.32,0,.63,0,1,0,.11,0,.13.14.12h1.41c.13,0,.16,0,.16.15,0,.36,0,.36-.36.36H53.8c-.16,0-.2,0-.2-.21C53.61,32.7,53.61,32.13,53.61,31.56Z"/><path class="cls-1" d="M54.38,16v2.47c0,.14,0,.19-.17.18s-.47.07-.59,0,0-.39,0-.6V13.52c0-.14,0-.22.19-.2s.47-.08.58,0,0,.37,0,.57Z"/><path class="cls-1" d="M79.57,37.51a1.34,1.34,0,0,1,1-.27.8.8,0,0,1,.75.84c0,.6,0,1.21,0,1.82,0,.09,0,.11-.12.12-.44,0-.44,0-.44-.4V38.25c0-.41-.16-.56-.57-.52H80.1c-.43.08-.46.11-.46.55v1.57c0,.12,0,.17-.15.17-.39,0-.39,0-.39-.39,0-.7,0-1.39,0-2.09,0-.08-.09-.22.08-.25S79.49,37.29,79.57,37.51Z"/><path class="cls-1" d="M56.48,32.1V30.89c0-.06,0-.18.08-.16s.29-.11.34.1.07.12.16.06a1.29,1.29,0,0,1,.86-.21.78.78,0,0,1,.75.75c0,.65,0,1.3,0,1.94,0,.05,0,.1-.06.1H58.2c-.1,0-.06-.1-.06-.16v-1.4a2.44,2.44,0,0,0,0-.27c0-.37-.21-.52-.58-.47h0c-.49.08-.51.11-.51.59s0,1,0,1.53c0,.14,0,.19-.18.19-.37,0-.37,0-.37-.37Z"/><path class="cls-1" d="M78.75,31a1.45,1.45,0,0,1,1-.28.79.79,0,0,1,.77.79c0,.63,0,1.26,0,1.89,0,.1,0,.11-.13.12-.43,0-.43,0-.43-.41s0-.92,0-1.38-.2-.58-.61-.51h0c-.45.09-.45.09-.45.55s0,1,0,1.57c0,.13,0,.18-.17.18-.38,0-.38,0-.38-.39,0-.71,0-1.41,0-2.12,0-.08-.09-.22.09-.24S78.7,30.71,78.75,31Z"/><path class="cls-1" d="M68.72,31a1.61,1.61,0,0,1,.71-.28.86.86,0,0,1,1,.92v1.71c0,.13,0,.17-.16.17-.39,0-.39,0-.39-.39V31.68q0-.57-.57-.51c-.48,0-.54.11-.54.59s0,1,0,1.55c0,.13,0,.17-.17.17-.38,0-.38,0-.38-.38V30.92c0-.07-.07-.21.1-.19s.32-.1.33.16A.25.25,0,0,0,68.72,31Z"/><path class="cls-1" d="M61.28,37.51a1.43,1.43,0,0,1,1-.27.81.81,0,0,1,.72.85c0,.6,0,1.2,0,1.81,0,.09,0,.11-.12.12-.42,0-.42,0-.42-.39V38.27c0-.43-.2-.6-.63-.54h0c-.43.08-.44.09-.44.52v1.57c0,.14,0,.19-.17.19-.38,0-.38,0-.38-.38V37.48c0-.06-.07-.2.08-.19s.32-.11.35.14A.45.45,0,0,1,61.28,37.51Z"/><path class="cls-1" d="M61.59,30.73a19.2,19.2,0,0,1-.8,2.64c0,.08-.07.12-.16.1h0c-.21,0-.46.07-.61,0s-.18-.36-.25-.56c-.23-.66-.42-1.33-.59-2,0-.11,0-.14.11-.15.42,0,.42,0,.52.41a17.07,17.07,0,0,0,.49,1.73.35.35,0,0,0,.09.17,3.87,3.87,0,0,0,.23-.65c.15-.5.28-1,.39-1.51,0-.1,0-.15.16-.14Z"/><path class="cls-1" d="M81.87,32v.63c0,.33.11.41.43.34.07,0,.16-.11.21,0a1.37,1.37,0,0,1,.15.35c0,.06,0,.07-.09.09a1.38,1.38,0,0,1-.67.11.6.6,0,0,1-.57-.63c0-.5,0-1,0-1.49,0-.16,0-.23-.2-.21a.24.24,0,0,1-.2-.37.14.14,0,0,1,.16,0c.21,0,.29-.06.27-.27s0-.17,0-.25,0-.25,0-.28a1.38,1.38,0,0,1,.41,0c.08,0,.06.07.06.12v.53c0,.11,0,.13.13.13s.33,0,.49,0,.13,0,.14.12c0,.33,0,.33-.33.33s-.43,0-.43.42Z"/><path class="cls-1" d="M82.12,38.69c0-.3,0-.54,0-.77s0-.21-.18-.19-.19.05-.21,0a.53.53,0,0,1,0-.33c0-.08.12,0,.19,0s.26-.06.23-.25a1,1,0,0,1,0-.24c0-.34.09-.39.43-.33.06,0,.08,0,.08.08v.14c0,.18-.08.41,0,.53s.33,0,.51,0h.07c.11,0,.15,0,.14.13a.61.61,0,0,0,0,.19c0,.1,0,.13-.12.13h-.49c-.13,0-.16,0-.15.16v1.35c0,.29.11.38.39.32.09,0,.19-.12.25,0a1,1,0,0,1,.15.34c0,.06,0,.07-.07.08a1.18,1.18,0,0,1-.8.1.56.56,0,0,1-.44-.48A6.65,6.65,0,0,1,82.12,38.69Z"/><path class="cls-1" d="M86.5,31.57c0,.57,0,1.15,0,1.73,0,.13,0,.18-.17.18-.39,0-.39,0-.39-.39,0-1.08,0-2.15,0-3.23,0-.15,0-.21.2-.21.36,0,.36,0,.36.37Z"/><path class="cls-1" d="M63.89,31.08a1,1,0,0,1,.93-.4c.09,0,.14,0,.13.13,0,.35,0,.35-.38.36l-.23,0c-.34.07-.39.13-.39.48V33.3c0,.13,0,.18-.16.18-.39,0-.39,0-.39-.39V30.92c0-.07-.07-.21.1-.19s.33-.1.35.16Z"/><path class="cls-1" d="M62.63,32.1c0,.4,0,.8,0,1.2,0,.13,0,.18-.17.18-.37,0-.37,0-.37-.37V30.92c0-.15,0-.2.18-.2.36,0,.36,0,.36.36Z"/><path class="cls-1" d="M62.65,29.94a.3.3,0,1,1-.31-.31A.31.31,0,0,1,62.65,29.94Z"/><path class="cls-1" d="M63.9,15.11a2.07,2.07,0,0,0-1-1.62,2.69,2.69,0,0,0-1.34-.24,1.92,1.92,0,0,0-2,1.67,5,5,0,0,0,0,2.15,1.86,1.86,0,0,0,1.55,1.57,3.32,3.32,0,0,0,1.09,0,1.83,1.83,0,0,0,1.64-1.39A4.8,4.8,0,0,0,64,15.94,6,6,0,0,0,63.9,15.11Zm-.82,1.7A1.29,1.29,0,0,1,61.51,18a1.2,1.2,0,0,1-1.22-1.13,4.34,4.34,0,0,1,0-1.83,1.25,1.25,0,0,1,1.45-1c.85,0,1.25.48,1.35,1.38,0,.22,0,.43,0,.57A4.84,4.84,0,0,1,63.08,16.81Z"/><path class="cls-1" d="M69.25,22.85a1.55,1.55,0,0,0-1.06-1.32A2.79,2.79,0,0,0,67,21.46a1.47,1.47,0,0,0-1.36,1.29,6.63,6.63,0,0,0,0,2.84,1.47,1.47,0,0,0,1,1.2,2.66,2.66,0,0,0,1.19.06,1.48,1.48,0,0,0,1.3-1.16,6.64,6.64,0,0,0,.17-1.55A8,8,0,0,0,69.25,22.85Zm-.78,2.56a1.06,1.06,0,0,1-2,0,7.37,7.37,0,0,1,0-2.39.91.91,0,0,1,1.07-.86.93.93,0,0,1,1,.93,8.07,8.07,0,0,1,.07,1.11A6.45,6.45,0,0,1,68.47,25.41Z"/><path class="cls-1" d="M64.53,22.84a1.53,1.53,0,0,0-1.18-1.34,3,3,0,0,0-1,0A1.5,1.5,0,0,0,61,22.71a6.91,6.91,0,0,0,0,2.9,1.46,1.46,0,0,0,1.12,1.21,3.27,3.27,0,0,0,1.08,0,1.5,1.5,0,0,0,1.31-1.18,6.59,6.59,0,0,0,.17-1.53A8.18,8.18,0,0,0,64.53,22.84Zm-.78,2.58a.93.93,0,0,1-1,.78.91.91,0,0,1-1-.81,7,7,0,0,1,0-2.38.91.91,0,0,1,1.08-.87,1,1,0,0,1,1,.94,10,10,0,0,1,.06,1.11A6.45,6.45,0,0,1,63.75,25.42Z"/><path class="cls-1" d="M68.63,37.53c0-.1,0-.13-.12-.16a4.23,4.23,0,0,0-1.05-.15.92.92,0,0,0-1,.83,3.08,3.08,0,0,0,0,1.21.93.93,0,0,0,.87.82,1.23,1.23,0,0,0,.77-.19.89.89,0,0,1,0,.32c0,.31-.11.4-.42.44a3.32,3.32,0,0,1-.63,0c-.31,0-.3,0-.36.29,0,.11,0,.14.11.16a3.72,3.72,0,0,0,1,.06c.52,0,.83-.32.84-.78Zm-.69,2a1.22,1.22,0,0,1-.46.06.44.44,0,0,1-.46-.33A2.13,2.13,0,0,1,67,38a.42.42,0,0,1,.44-.32c.63,0,.63,0,.63.59v.34c0,.23,0,.47,0,.7A.17.17,0,0,1,67.94,39.56Z"/><path class="cls-1" d="M85.18,31.42a.7.7,0,0,0-.62-.71,2.69,2.69,0,0,0-1,0c-.36.06-.35.06-.28.4,0,.1,0,.13.16.11a2.84,2.84,0,0,1,.72-.07c.4,0,.52.15.51.55,0,.1,0,.13-.14.12a5.14,5.14,0,0,0-.68,0,.82.82,0,0,0-.8.86.84.84,0,0,0,.84.83,1.29,1.29,0,0,0,.88-.28c0,.3.18.22.34.23s.11,0,.11-.11C85.19,32.71,85.21,32.06,85.18,31.42ZM84.48,33a.75.75,0,0,1-.74,0,.4.4,0,0,1-.13-.43.34.34,0,0,1,.26-.29,1.94,1.94,0,0,1,.68,0c.08,0,.1,0,.1.11a1.92,1.92,0,0,0,0,.24C84.64,32.74,84.71,32.92,84.48,33Z"/><path class="cls-1" d="M67.65,31.77a1.1,1.1,0,0,0-1.15-1.1,1.08,1.08,0,0,0-1.23.92,3.12,3.12,0,0,0-.06.45,1.71,1.71,0,0,0,.3,1.11,1.28,1.28,0,0,0,1.39.31.88.88,0,0,0,.63-.57A2.25,2.25,0,0,0,67.65,31.77Zm-.6.85a.6.6,0,0,1-.6.43.61.61,0,0,1-.61-.4,1.76,1.76,0,0,1-.07-.56,1.73,1.73,0,0,1,0-.45.59.59,0,0,1,.62-.49.57.57,0,0,1,.62.49A1.81,1.81,0,0,1,67.05,32.62Z"/><path class="cls-1" d="M60.09,39.82c0-.52,0-1,0-1.55a2.31,2.31,0,0,0,0-.37.68.68,0,0,0-.53-.61,2.36,2.36,0,0,0-1.09,0c-.42.08-.36,0-.28.43,0,.08,0,.11.13.08a3.17,3.17,0,0,1,.76-.06c.37,0,.49.14.5.52,0,.14,0,.16-.17.15a2.29,2.29,0,0,0-.74,0,.79.79,0,0,0-.71.78.81.81,0,0,0,.68.88,1.26,1.26,0,0,0,1-.26c0,.21.13.22.28.22S60.09,40,60.09,39.82Zm-.75-.26a.73.73,0,0,1-.74,0,.42.42,0,0,1,.14-.7,1.27,1.27,0,0,1,.43,0c.36,0,.36,0,.36.37C59.53,39.31,59.57,39.48,59.34,39.56Z"/><path class="cls-1" d="M69.86,38.85h1c.54,0,.54,0,.51-.55a1,1,0,0,0-.94-1.07,1.1,1.1,0,0,0-1.21.84,2.15,2.15,0,0,0,0,1.18,1.05,1.05,0,0,0,.89.81A1.91,1.91,0,0,0,71,40c.36-.1.36-.1.25-.45,0-.09-.06-.11-.15-.07a1.91,1.91,0,0,1-.63.13.64.64,0,0,1-.76-.61C69.73,38.87,69.76,38.84,69.86,38.85Zm-.09-.64a.7.7,0,0,1,.28-.43.53.53,0,0,1,.59,0c.21.12.23.35.25.56s-.06.07-.11.07-.31,0-.47,0a2.54,2.54,0,0,0-.39,0C69.74,38.44,69.73,38.35,69.77,38.21Z"/><path class="cls-1" d="M65.76,39.85V38.06a.76.76,0,0,0-.72-.81,3,3,0,0,0-.94,0c-.34,0-.33.06-.28.4,0,.11.06.13.17.11a3.31,3.31,0,0,1,.7-.06c.4,0,.51.12.53.51,0,.15,0,.17-.17.16a2.48,2.48,0,0,0-.72,0,.81.81,0,0,0-.73.82.82.82,0,0,0,.69.85,1.29,1.29,0,0,0,1-.25.92.92,0,0,1,0,.09c0,.22.22.09.34.11S65.76,39.91,65.76,39.85Zm-.7-.31a.75.75,0,0,1-.75,0,.43.43,0,0,1,.26-.76h.3c.35,0,.35,0,.35.42C65.22,39.36,65.23,39.48,65.06,39.54Z"/><path class="cls-1" d="M77,38.85h1c.62,0,.62,0,.57-.63a1,1,0,0,0-.82-1,1.07,1.07,0,0,0-1.23.61,2,2,0,0,0-.12,1.29,1.06,1.06,0,0,0,1,.91,1.75,1.75,0,0,0,.85-.08c.43-.14.32-.08.24-.44,0-.12-.08-.11-.16-.08a1.85,1.85,0,0,1-.61.13.66.66,0,0,1-.77-.61C76.83,38.88,76.85,38.84,77,38.85Zm-.09-.63a.64.64,0,0,1,.44-.51.55.55,0,0,1,.68.63c0,.08-.06.07-.11.07s-.31,0-.47,0a2.54,2.54,0,0,0-.39,0C76.83,38.44,76.83,38.36,76.87,38.22Z"/><path class="cls-1" d="M76.15,32.3h1c.57,0,.57,0,.52-.58a1,1,0,0,0-.86-1,1.08,1.08,0,0,0-1.26.78,2.05,2.05,0,0,0,0,1.25,1.07,1.07,0,0,0,1,.8,2.05,2.05,0,0,0,.81-.1c.33-.1.32-.1.22-.43,0-.11-.07-.12-.17-.08a1.74,1.74,0,0,1-.67.13.64.64,0,0,1-.7-.62C76,32.32,76.06,32.3,76.15,32.3Zm.37-1.14c.49-.08.65.24.67.62,0,.1-.06.09-.11.09h-.93s-.1,0-.1-.07A.67.67,0,0,1,76.52,31.16Z"/><path class="cls-1" d="M27.68,48.82,39.27,29.17H16Z"/><path class="cls-1" d="M39.54,27.14c0-.23,0-.47-.09-.7a6.42,6.42,0,0,0-5.82-5.3,6.28,6.28,0,0,0-5.8,2.69c-.1.13-.14.09-.21,0a5.82,5.82,0,0,0-1-1.1,6.48,6.48,0,0,0-7.36-.82A6.29,6.29,0,0,0,15.82,27c0,.28,0,.28.24.28H39.41C39.51,27.28,39.55,27.26,39.54,27.14Z"/><path class="cls-1" d="M22,19.08c0,.32,0,.3.32.32s.46,0,.51-.31c0-.11.08-.09.16,0a2.7,2.7,0,0,0,1.63.46,1.77,1.77,0,0,0,1.85-1.41,3.44,3.44,0,0,0,.12-.64,5.34,5.34,0,0,0-.18-2.14,1.66,1.66,0,0,0-1.15-1.13,2.48,2.48,0,0,0-1.05-.07,2.88,2.88,0,0,0-1,.36v-.22c0-.81,0-1.62,0-2.44,0-.16-.05-.19-.2-.19a6.09,6.09,0,0,1-.74,0c-.19,0-.24,0-.24.23C22,14.27,22,16.67,22,19.08Zm1.35-3.79a2.25,2.25,0,0,1,1.17-.19.92.92,0,0,1,.82.74,4,4,0,0,1,0,1.94.92.92,0,0,1-.89.73,2.14,2.14,0,0,1-1.16-.22.19.19,0,0,1-.12-.2c0-.43,0-.86,0-1.29s0-.83,0-1.24A.25.25,0,0,1,23.37,15.29Z"/><path class="cls-1" d="M27.59,16.94a2.63,2.63,0,0,0,.67.22c.35.08.72.07,1.07.16a.5.5,0,0,1,.43.53.53.53,0,0,1-.39.56,1.44,1.44,0,0,1-.4.09,4.31,4.31,0,0,1-1.82-.22c-.1,0-.16-.05-.15.09v.77c0,.08,0,.12.11.14a4.67,4.67,0,0,0,2.72.07,1.48,1.48,0,0,0,1.08-1.59,1.25,1.25,0,0,0-1.06-1.33,1.14,1.14,0,0,0-.25-.06c-.35-.05-.71-.09-1.07-.16a.49.49,0,0,1-.4-.69.61.61,0,0,1,.51-.4,2.72,2.72,0,0,1,.9,0,4.59,4.59,0,0,1,1.14.26c0-.29,0-.57,0-.84s0-.19-.17-.23a4.28,4.28,0,0,0-2.07-.14,1.58,1.58,0,0,0-1.43,2A1.06,1.06,0,0,0,27.59,16.94Z"/><path class="cls-1" d="M32.53,18.11v-3.7c0-.16,0-.2-.2-.2a4.69,4.69,0,0,1-.75,0c-.16,0-.21,0-.21.2,0,.65,0,1.3,0,1.95v1.83c0,1,.66,1.3,1.45,1.27.1,0,.14,0,.14-.14s0-.46,0-.69,0-.13-.12-.15S32.54,18.36,32.53,18.11Z"/><path class="cls-1" d="M32,13.46a.77.77,0,0,0,.75-.75.76.76,0,0,0-1.52,0A.78.78,0,0,0,32,13.46Z"/><path class="cls-1" d="M34.13,19.51a.76.76,0,1,0-.76-.75A.76.76,0,0,0,34.13,19.51Z"/></g></svg>