<svg id="Camada_2" data-name="Camada 2" xmlns="http://www.w3.org/2000/svg" viewBox="0 0 433 73"><defs><style>.cls-1{fill:#fff;}</style></defs><title>kildarebranco</title><path class="cls-1" d="M402,40c-4.93,0-9.87,0-14.8,0-.57,0-.73.15-.72.73a26.27,26.27,0,0,0,.73,5.44c.74,3,4.25,6.58,8.32,6.71,1.47,0,2.94.15,4.42.15,5.59,0,11.17,0,16.76,0,.72,0,.87.21.85.89,0,2.59,0,5.18,0,7.76,0,.51-.13.65-.64.65-6.48,0-13,0-19.44,0a27.53,27.53,0,0,1-9.77-1.49,20,20,0,0,1-12.34-13.4,41.19,41.19,0,0,1-1.53-14.19,31.1,31.1,0,0,1,3.58-13.6c2-3.65,4.62-6.77,8.62-8.34a30.36,30.36,0,0,1,8.59-1.94c6.06-.51,12.13-.17,18.2-.28,1.37,0,2.75,0,4.13,0,.49,0,.6.15.6.61,0,2.64,0,5.27,0,7.91,0,.56-.17.67-.69.67q-8.75,0-17.49,0a16.4,16.4,0,0,0-6.31,1.06,10,10,0,0,0-6.38,8.47c-.1.74-.1,1.49-.19,2.23s.09.8.72.78c1.62,0,3.24,0,4.86,0,8.2,0,16.39,0,24.59,0,.67,0,.91.13.9.86-.05,2.59,0,5.17,0,7.76,0,.55-.15.69-.69.69C411.89,40,406.94,40,402,40Z"/><path class="cls-1" d="M187.17,26c0,5.15,0,10.3,0,15.45a21.25,21.25,0,0,0,.72,5.88,7.47,7.47,0,0,0,5.66,5.52,23.69,23.69,0,0,0,5.8.78c4.23,0,8.46,0,12.69,0,.52,0,.71.1.7.67,0,2.49,0,5,0,7.47,0,.43,0,.65-.58.64-6.26-.08-12.52.14-18.78-.14a17.88,17.88,0,0,1-11.52-4.43A16.5,16.5,0,0,1,176.7,48a43.71,43.71,0,0,1-.61-7.58q0-15.33,0-30.67c0-.57.08-.78.72-.78,3.22,0,6.43,0,9.65,0,.64,0,.73.2.73.77C187.16,15.15,187.17,20.56,187.17,26Z"/><path class="cls-1" d="M153.65,9l-4.08,5.1q-8.35,10.4-16.72,20.79c-.37.46-.18.69.08,1L149,56.5l4.61,5.94a.8.8,0,0,1-.6.11c-4.35,0-8.71,0-13.06,0a1.08,1.08,0,0,1-1-.46Q129,49,119,35.85c-.38-.48-.34-.75,0-1.21Q129.16,22,139.26,9.43a1,1,0,0,1,.82-.46c4.4,0,8.8,0,13.2,0Z"/><path class="cls-1" d="M118.05,35.69q0,13,0,26c0,.61-.11.82-.78.82-3.43,0-6.86,0-10.3,0-.56,0-.79-.1-.78-.74q0-26.07,0-52.14c0-.55.12-.74.71-.74q5.22,0,10.44,0c.6,0,.71.19.71.74Q118,22.63,118.05,35.69Z"/><path class="cls-1" d="M156.41,35.6q0-13,0-26c0-.63.14-.8.79-.8,3.41,0,6.82,0,10.22,0,.54,0,.74.08.74.69q0,26.07,0,52.14c0,.53-.11.7-.67.69-3.46,0-6.91,0-10.37,0-.59,0-.71-.18-.71-.73Q156.43,48.62,156.41,35.6Z"/><path class="cls-1" d="M82.93,13.06a11.36,11.36,0,0,0-5.6-10A15.7,15.7,0,0,0,68.42.74q-27.16,0-54.34,0a15.4,15.4,0,0,0-8.83,2.6C2,5.52,0,8.48,0,12.5Q0,37,0,61.39A9.76,9.76,0,0,0,1.62,67c2.9,4.32,7.14,6.22,12.17,6.28,9.21.11,18.42,0,27.64,0,9,0,18,0,27.06,0a15.94,15.94,0,0,0,8-1.88c4.09-2.3,6.49-5.64,6.49-10.51Q82.89,37,82.93,13.06ZM71,24.5A8.59,8.59,0,0,1,67.48,24C60.3,21.54,53.39,22.6,46.64,25.6a23.82,23.82,0,0,0-6.82,4.34c-1.16,1.11-1.2,1.71-.13,2.95A17.21,17.21,0,0,0,43.62,36c4.92,3.11,10.17,5.62,15.34,8.28,3,1.52,5.94,3,8.75,4.83a10.19,10.19,0,0,1,2.88,2.71A4.16,4.16,0,0,1,70,57.54a13.45,13.45,0,0,1-6,2.94,29.8,29.8,0,0,1-5.14.85A9.76,9.76,0,0,1,52,58.92a35.8,35.8,0,0,1-6.79-7.69c-1.92-2.67-3.67-5.46-5.79-8a11.73,11.73,0,0,0-2.8-2.6,3.16,3.16,0,0,0-3.91.14,27.78,27.78,0,0,0-2.85,2.35c-2.62,2.5-3,4.68-1.69,8a18.2,18.2,0,0,0,4.95,7,16,16,0,0,1,2.37,2.35c.78,1,.58,1.63-.68,2a17.85,17.85,0,0,1-4.61.43c-2.1,0-4.2,0-6.31,0-2.63-.22-5.27-.11-7.9-.28-2-.13-2.2-.33-1.52-2.21a26.07,26.07,0,0,0,1.11-6.12,72,72,0,0,0,.31-10.79,26.54,26.54,0,0,0-1-6.57,6.87,6.87,0,0,0-2.27-3.54,26.91,26.91,0,0,1-2.25-2.16c-2-2-.94-6,.79-7.29a11.54,11.54,0,0,1,3.68-1.83A21.19,21.19,0,0,1,20,21.32,2,2,0,0,1,22.16,23a10.61,10.61,0,0,1,.18,2.45,17.5,17.5,0,0,0,.11,3.47,1.5,1.5,0,0,0,2,1.34,10.64,10.64,0,0,0,3.39-1.59,94.21,94.21,0,0,0,9.86-7.73,71.09,71.09,0,0,1,12.47-8.81A27.35,27.35,0,0,1,59,9a12.75,12.75,0,0,1,12.16,4.41,15.72,15.72,0,0,1,3.16,5.4,5.88,5.88,0,0,1,.32,2A3.65,3.65,0,0,1,71,24.5Z"/><path class="cls-1" d="M371.84,61.57q-6.12-10.47-12.29-20.92c-.33-.55-.31-.73.36-.92a12.63,12.63,0,0,0,9.16-9,20.37,20.37,0,0,0-.27-12.43,12.25,12.25,0,0,0-8.54-8.35,30.38,30.38,0,0,0-8.32-1c-9.27-.05-18.53,0-27.79,0-.53,0-.63.17-.62.66q0,26.12,0,52.23c0,.53.17.63.66.63,3.24,0,6.48,0,9.72,0,.63,0,.84-.12.84-.81,0-6.51,0-13,0-19.52,0-.52.1-.69.67-.69,4,0,7.93,0,11.9,0a.89.89,0,0,1,.89.54c.62,1.14,1.28,2.27,1.92,3.4q4.7,8.25,9.37,16.5c.18.32.33.58.8.58,4,0,7.93,0,11.93,0A1.48,1.48,0,0,0,371.84,61.57ZM358.23,27.35a5.25,5.25,0,0,1-3.79,4,17,17,0,0,1-5.59.68c-1.81,0-3.62,0-5.43,0-2.69,0-5.37,0-8.05,0-.49,0-.66-.1-.66-.63q0-6.19,0-12.39c0-.42.06-.6.54-.59,5.07.06,10.15-.1,15.22.1a19.9,19.9,0,0,1,4.28.68A4.52,4.52,0,0,1,358.23,23,10.82,10.82,0,0,1,358.23,27.35Z"/><path class="cls-1" d="M263.31,21.21c-2.08-4.35-5-8-9.42-10.17a23.57,23.57,0,0,0-10.62-2.18c-8.53,0-17.07,0-25.6,0-.67,0-.78.2-.78.81q0,12.94,0,25.89V61.22c0,1-.15.94.91.94h26.48a30.49,30.49,0,0,0,4.48-.22A19.62,19.62,0,0,0,257,59a19.53,19.53,0,0,0,7.19-9.4,34.22,34.22,0,0,0,2.19-13.06A34.93,34.93,0,0,0,263.31,21.21ZM253.15,44.43a10.82,10.82,0,0,1-4.06,6.89A9.32,9.32,0,0,1,244,53c-3.45.29-6.91.09-10.37.14-1.69,0-3.39,0-5.08,0-.59,0-.76-.13-.76-.74,0-5.57,0-11.13,0-16.69s0-11.12,0-16.68c0-.62.17-.75.76-.75,4.52,0,9,0,13.57,0a20.67,20.67,0,0,1,5,.63c1.91.48,3.14,1.93,4.22,3.47a13,13,0,0,1,2.07,6.11A52.33,52.33,0,0,1,253.15,44.43Z"/><path class="cls-1" d="M320.75,61.78q-11.16-26.14-22.3-52.29a.9.9,0,0,0-1-.64c-3.43,0-6.86,0-10.29,0a1.1,1.1,0,0,0-1.22.79q-9.59,23-19.24,46c-.93,2.22-1.85,4.44-2.83,6.77,3.93,0,7.72,0,11.52,0,.44,0,.49-.28.59-.57,1.4-3.91,2.81-7.81,4.18-11.72a.75.75,0,0,1,.87-.6q11,0,21.9,0a.78.78,0,0,1,.89.6c1.46,3.88,2.94,7.75,4.4,11.64a.82.82,0,0,0,.92.65c3.73,0,7.45,0,11.17,0a1,1,0,0,0,.63-.08C320.86,62.09,320.81,61.93,320.75,61.78ZM284,40c2.6-6.77,5.18-13.52,7.83-20.43,2.75,6.9,5.43,13.64,8.13,20.43Z"/><path class="cls-1" d="M426.65,3.37a6.3,6.3,0,0,0-6.06,6,6,6,0,0,0,6.1,6.33A6.15,6.15,0,0,0,433,9.85,6.34,6.34,0,0,0,426.65,3.37Zm0,11.62a5.38,5.38,0,0,1-5.31-5.61,5.41,5.41,0,1,1,10.81.25A5.4,5.4,0,0,1,426.69,15Z"/><path class="cls-1" d="M429,9.63c-.2-.24-.11-.3,0-.44a1.62,1.62,0,0,0,.49-1.9,1.7,1.7,0,0,0-1.66-1.07c-.92-.06-1.84,0-2.75-.08-.35,0-.47.12-.46.46,0,.94,0,1.89,0,2.83s0,1.93,0,2.9c0,.54.32.42.61.42s.64.09.61-.43,0-1.31,0-2c0-.3.09-.45.41-.43a3.56,3.56,0,0,0,.73,0c.69-.1,1,.27,1,.89a13.68,13.68,0,0,0,.21,1.43c0,.18-.05.49.28.5s.81,0,1.22,0c0,0,.06-.13,0-.18C429.51,11.55,429.65,10.46,429,9.63Zm-1.29-.9a3.65,3.65,0,0,1-.95.09c-.26-.07-.72.16-.82-.14a4.34,4.34,0,0,1,0-1.35s0-.07,0-.07a4.06,4.06,0,0,1,1.63-.07.68.68,0,0,1,.72.48A.77.77,0,0,1,427.69,8.73Z"/></svg>