<?xml version="1.0" encoding="utf-8"?>
<!-- Generator: Adobe Illustrator 22.1.0, SVG Export Plug-In . SVG Version: 6.00 Build 0)  -->
<svg version="1.1" id="Camada_2_1_" xmlns="http://www.w3.org/2000/svg" xmlns:xlink="http://www.w3.org/1999/xlink" x="0px"
	 y="0px" viewBox="0 0 400 42" style="enable-background:new 0 0 400 42;" xml:space="preserve">
<style type="text/css">
	.st0{fill:#D9453D;}
	.st1{fill:#FFFFFF;}
	.st2{font-family:'ArialMT';}
	.st3{font-size:16.44px;}
</style>
<title>LoginGP</title>
<path class="st0" d="M4.3,1h391.3c2.4,0,4.4,1.9,4.4,4.3v31.3c0,2.4-1.9,4.3-4.4,4.3H4.3C1.9,41,0,39.1,0,36.7V5.3
	C0,2.9,1.9,1,4.3,1z"/>
<text transform="matrix(1 0 0 1 135 25.87)" class="st1 st2 st3">Log in With Google+</text>
<path class="st1" d="M31.7,20.6h-2.9c-0.2,0-0.2,0-0.2,0.2c0,0.9,0,1.8,0,2.7c0,0.2-0.1,0.2-0.2,0.2c-0.4,0-0.9,0-1.3,0
	c0,0,0-0.1,0-0.1v-2.8c0,0,0-0.1,0-0.1c-0.1-0.1-0.2,0-0.2,0h-2.7c-0.1,0-0.2,0-0.2-0.2c0-0.4,0-0.8,0-1.2c0-0.1,0-0.2,0.2-0.2h2.7
	c0.1,0,0.2,0,0.2,0c0-0.1,0-0.3,0-0.4v-2.5c0-0.1,0-0.2,0-0.2l0,0l0,0c0.1,0,0.3,0,0.4,0c0.4,0,0.8,0,1.2,0c0,1,0,1.9,0,2.9
	c0,0.2,0.1,0.2,0.3,0.2h2.9c0,0.1,0.1,0.1,0,0.2v1.2C31.8,20.5,31.7,20.6,31.7,20.6z"/>
<path class="st1" d="M23.3,26.2C23.3,26.2,23.3,26.2,23.3,26.2C23.3,26.1,23.3,26.1,23.3,26.2c-0.3-1.1-0.8-2-1.6-2.7
	c0-0.1-0.1-0.2-0.2-0.2c-0.1-0.1-0.1-0.1-0.2-0.2c-0.6-0.5-1.2-0.9-1.8-1.5c-0.1-0.1-0.2-0.2-0.3-0.3c-0.2-0.2-0.3-0.4-0.3-0.6
	c0-0.2,0-0.3,0-0.5c0.1-0.4,0.3-0.7,0.6-1c0.4-0.4,0.8-0.7,1.2-1c0.1-0.1,0.2-0.1,0.2-0.2l0.1-0.1c0.1-0.1,0.2-0.1,0.2-0.3
	c0.4-0.5,0.7-1,0.9-1.6c0.1-0.4,0.2-0.9,0.2-1.4c0.1,0,0-0.1,0-0.2s0-0.3,0-0.4c0-0.1,0-0.3-0.1-0.4c-0.2-0.7-0.5-1.4-0.9-2
	c-0.3-0.4-0.7-0.8-1.1-1.1c0-0.2,0.1-0.1,0.2-0.1c0.5,0,0.9,0,1.4,0c0.1,0,0.2,0,0.2-0.1L23,9.8c0.3-0.2,0.7-0.4,1-0.7
	c0-0.1-0.1,0-0.2,0h-6.2c-0.1,0-0.1,0-0.2,0l-0.9,0.1c0,0-0.1,0-0.1,0c-0.1,0-0.1,0-0.2,0c0,0-0.1,0-0.1,0s0,0,0,0
	c-1.4,0.2-2.8,0.8-3.9,1.7c-0.1,0-0.2,0.1-0.2,0.2l-0.3,0.3c-0.1,0-0.1,0.1-0.1,0.1c-0.6,0.7-1,1.5-1.2,2.3c0,0.1,0,0.2-0.1,0.2
	c-0.1,0.2-0.1,0.5-0.1,0.7c0,0.2,0,0.5,0,0.7s0,0.3,0.1,0.4c0.1,0.7,0.4,1.4,0.9,2c0.1,0.1,0.2,0.2,0.2,0.4c0.2,0.2,0.4,0.4,0.6,0.6
	c0.7,0.6,1.6,0.9,2.5,1.1c0.1,0.1,0.1,0,0.2,0h0.3c0.3,0,0.6,0,0.9,0c0.1,0,0.2,0,0.2,0c0.1,0,0.3,0,0.2,0.2
	c-0.1,0.2-0.1,0.4-0.2,0.6c0,0,0,0.1,0,0.1c0,0.9,0.3,1.7,0.9,2.4L16,23.2c-0.1,0-0.2,0-0.2,0c-0.1,0-0.2,0-0.3,0
	c-0.1,0-0.3,0-0.4,0s-0.2,0-0.2,0.1l-0.6,0.1c0,0-0.1,0-0.1,0c0,0,0,0,0,0c-0.4,0.1-0.8,0.2-1.2,0.3C12,24,11,24.5,10.1,25.2
	c-0.1,0-0.2,0.1-0.2,0.2l-0.2,0.2c-0.1,0-0.1,0.1-0.1,0.2c-0.4,0.5-0.7,1-0.9,1.6c0,0.1,0,0.2-0.1,0.3s0,0.2,0,0.3s0,0.2,0,0.4
	c0,0,0,0,0,0.1c0,0.1,0,0.3,0,0.5c0,0,0,0,0,0.1c0,0,0,0,0,0c0,0,0,0,0,0.1c0.1,0.8,0.6,1.6,1.2,2.2c0.4,0.4,0.9,0.7,1.4,0.9
	c0.6,0.3,1.3,0.5,2,0.6c0,0,0.1,0,0.1,0c0.1,0,0.1,0,0.2,0c0,0,0.1,0,0.1,0c0.2,0,0.4,0,0.6,0c0.1,0,0.3,0,0.4,0c0.3,0,0.7,0,1,0
	l1-0.1c0,0,0.1,0,0.1,0c0.1,0,0.1,0,0.2,0c0,0,0.1,0,0.1,0l0.6-0.1c1.1-0.2,2.1-0.6,3-1.2c0.7-0.5,1.4-1.1,1.8-1.9
	c0.3-0.6,0.6-1.2,0.7-1.9c0,0,0-0.1,0-0.1C23.3,27,23.3,26.6,23.3,26.2z M14.5,18.2c-1-1.1-1.6-2.5-1.7-4c-0.1-0.7,0-1.4,0.2-2
	c0.3-0.9,1.1-1.6,2-1.8c0.1-0.1,0.3-0.1,0.4-0.1c0.2,0,0.3,0,0.5,0c0.6,0.1,1.2,0.3,1.7,0.8c1.3,1.3,2,3.1,2,4.9
	c0,0.3,0,0.6-0.1,0.9c-0.1,0,0,0.1,0,0.1c-0.2,1-1,1.8-2,2C16.4,19.4,15.3,19,14.5,18.2L14.5,18.2z M21.2,28.9
	C21.1,28.9,21.2,28.9,21.2,28.9c-0.1,0.9-0.7,1.7-1.4,2.1c-0.6,0.4-1.3,0.6-2,0.7c-0.1,0-0.3,0-0.4,0c-0.6,0.1-1.3,0.1-1.9,0
	c-0.1,0-0.3,0-0.4-0.1c-0.6-0.1-1.2-0.2-1.8-0.5c-1-0.5-1.8-1.4-2-2.5c-0.1-0.4-0.1-0.9,0-1.3c0.1,0,0,0,0-0.1
	c0.1-0.6,0.5-1.1,0.9-1.5c0.6-0.5,1.3-0.8,2-1c0.2-0.1,0.4-0.1,0.6-0.1c0,0,0.1,0,0.1,0c0.3-0.1,0.6-0.1,0.8-0.1
	c0.4,0,0.9-0.1,1.3-0.1c0.3,0,0.6,0,0.8,0.1c0.2,0,0.3,0.1,0.5,0.3c0.5,0.4,1,0.8,1.5,1.2c0,0.1,0.1,0.1,0.2,0.1
	c0.3,0.2,0.5,0.5,0.7,0.8c0.2,0.3,0.4,0.6,0.4,1c0,0.1,0,0.2,0,0.4c0,0.2,0,0.4,0,0.5C21.2,28.7,21.2,28.8,21.2,28.9L21.2,28.9z"/>
</svg>
