<svg id="Camada_2" data-name="Camada 2" xmlns="http://www.w3.org/2000/svg" viewBox="0 0 400 42"><defs><style>.cls-1{fill:#d9453d;}.cls-2{font-size:16.44px;font-family:ArialMT, Arial;}.cls-2,.cls-3{fill:#fff;}</style></defs><title>LoginGP</title><rect class="cls-1" y="1" width="400" height="40" rx="4.35" ry="4.35"/><text class="cls-2" transform="translate(135 25.87)">Log in With Google+</text><path class="cls-3" d="M31.7,20.62H28.81c-.19,0-.25,0-.25.23,0,.9,0,1.79,0,2.68,0,.2-.06.24-.24.23-.43,0-.87,0-1.3,0,0,0,0-.09,0-.14V20.79a.25.25,0,0,1,0-.12c-.06-.1-.16,0-.24,0H24.13c-.15,0-.21,0-.2-.2,0-.39,0-.77,0-1.16,0-.15,0-.2.2-.2H26.8c.08,0,.16.05.22,0a1.54,1.54,0,0,1,0-.43V16.17c0-.07,0-.16,0-.23h0v0a.53.53,0,0,1,.37,0,7.6,7.6,0,0,1,1.17,0c0,1,0,1.92,0,2.89,0,.2.06.24.26.24H31.7a.24.24,0,0,1,.05.18v1.18A.24.24,0,0,1,31.7,20.62Z"/><path class="cls-3" d="M23.27,26.21a.05.05,0,0,0,0-.08,5.12,5.12,0,0,0-1.64-2.66.33.33,0,0,0-.21-.19c-.07-.06-.14-.11-.21-.18-.56-.53-1.23-.94-1.8-1.46a.94.94,0,0,0-.27-.29,1,1,0,0,1-.29-.59,1.81,1.81,0,0,0,0-.52,1.83,1.83,0,0,1,.56-1,14,14,0,0,1,1.17-1A.49.49,0,0,0,20.8,18l.1-.1a.55.55,0,0,0,.24-.26A4.93,4.93,0,0,0,22.08,16a7.74,7.74,0,0,0,.21-1.35c.06,0,0-.12,0-.18s0-.28,0-.43a1.29,1.29,0,0,0-.08-.38,5.48,5.48,0,0,0-.88-2,8.63,8.63,0,0,0-1.06-1.12c0-.16.1-.1.17-.1.46,0,.91,0,1.37,0,.09,0,.18,0,.25-.06l.92-.6a9.6,9.6,0,0,0,1-.66c-.05-.05-.12,0-.18,0H17.63c-.07,0-.13,0-.19,0l-.93.08c-.05,0-.09,0-.13,0a.31.31,0,0,1-.21,0s-.09,0-.13,0,0,0,0,0a8.67,8.67,0,0,0-3.95,1.66.36.36,0,0,0-.21.19l-.29.29a.18.18,0,0,0-.13.15,5.9,5.9,0,0,0-1.22,2.34c0,.07,0,.16-.09.21a3.1,3.1,0,0,0-.1.68c0,.23,0,.47,0,.7s0,.32.08.45a5.36,5.36,0,0,0,.85,2c.08.12.21.2.22.35a5.21,5.21,0,0,0,.59.56,6,6,0,0,0,2.51,1.1c.05.06.13,0,.19,0l.28,0a6,6,0,0,0,.95,0,2.17,2.17,0,0,1,.25,0c.13,0,.25,0,.16.22a6.21,6.21,0,0,0-.2.61s0,.08,0,.13a3.12,3.12,0,0,0,.95,2.35l-.85.06a.44.44,0,0,0-.23,0,.74.74,0,0,1-.26,0c-.13,0-.26,0-.38.05s-.16,0-.22.06l-.55.08a.06.06,0,0,0-.09,0c-.41.1-.82.18-1.23.29a7.83,7.83,0,0,0-2.95,1.45.36.36,0,0,0-.21.19l-.19.19a.21.21,0,0,0-.14.16,4.68,4.68,0,0,0-.89,1.64c0,.11,0,.24-.12.32s0,.21,0,.31,0,.25,0,.38a.06.06,0,0,0,0,.07,1.33,1.33,0,0,1,0,.45.05.05,0,0,0,0,.08.21.21,0,0,1,0,.07,3.8,3.8,0,0,0,1.23,2.19,5.13,5.13,0,0,0,1.39.88,9.07,9.07,0,0,0,2,.62s.08,0,.13,0a.24.24,0,0,1,.2,0s.08,0,.11,0a1.18,1.18,0,0,0,.56,0,1.14,1.14,0,0,1,.45,0,3.56,3.56,0,0,0,1,0l1-.08a.1.1,0,0,0,.13,0,.3.3,0,0,1,.21,0s.09,0,.12,0l.61-.12a9,9,0,0,0,3-1.23,5.8,5.8,0,0,0,1.84-1.88,5.56,5.56,0,0,0,.7-1.88.11.11,0,0,0,0-.13A8.84,8.84,0,0,0,23.27,26.21Zm-8.74-8a6.52,6.52,0,0,1-1.73-4,4.64,4.64,0,0,1,.19-2,2.7,2.7,0,0,1,2-1.81,1,1,0,0,1,.43-.07,1.24,1.24,0,0,0,.47,0,2.69,2.69,0,0,1,1.7.8,7,7,0,0,1,2,4.88,2.9,2.9,0,0,1-.09.88c-.06,0,0,.06,0,.09A2.58,2.58,0,0,1,17.51,19,2.78,2.78,0,0,1,14.53,18.18Zm6.66,10.65c-.06,0,0,.05,0,.08a2.88,2.88,0,0,1-1.39,2,4.49,4.49,0,0,1-2,.67c-.15,0-.29,0-.44,0a7.88,7.88,0,0,1-1.88,0,3.18,3.18,0,0,1-.43-.06,4.47,4.47,0,0,1-1.75-.54,3.54,3.54,0,0,1-2-2.45,2.76,2.76,0,0,1,0-1.31c.06,0,0-.05,0-.08a2.94,2.94,0,0,1,.95-1.53,5,5,0,0,1,2-1,4.93,4.93,0,0,1,.58-.13s.06.05.08,0a6,6,0,0,1,.83-.13c.44,0,.87-.09,1.31-.07a1.57,1.57,0,0,1,.83.1,1.07,1.07,0,0,1,.45.26,17.56,17.56,0,0,1,1.51,1.19.22.22,0,0,0,.16.14,8.88,8.88,0,0,1,.71.79,2.6,2.6,0,0,1,.42,1,.59.59,0,0,0,0,.37,3.37,3.37,0,0,0,0,.55A.37.37,0,0,1,21.19,28.83Z"/></svg>