<?xml version="1.0" encoding="utf-8"?>
<!-- Generator: Adobe Illustrator 22.1.0, SVG Export Plug-In . SVG Version: 6.00 Build 0)  -->
<svg version="1.1" id="Camada_2_1_" xmlns="http://www.w3.org/2000/svg" xmlns:xlink="http://www.w3.org/1999/xlink" x="0px"
	 y="0px" viewBox="0 0 300 42" style="enable-background:new 0 0 300 42;" xml:space="preserve">
<style type="text/css">
	.st0{fill:#D9453D;}
	.st1{enable-background:new    ;}
	.st2{fill:#FFFFFF;stroke:#FFFFFF;stroke-width:0.6;stroke-miterlimit:10;}
	.st3{fill:#FFFFFF;}
</style>
<title>LoginGP</title>
<path class="st0" d="M3.2,1h293.5c1.8,0,3.3,1.9,3.3,4.3v31.4c0,2.4-1.4,4.3-3.3,4.3H3.2C1.4,41,0,39.1,0,36.7V5.3
	C0,2.9,1.4,1,3.2,1z"/>
<g class="st1">
	<path class="st2" d="M89,25.4V13.6h1.6V24h5.8v1.4H89z"/>
	<path class="st2" d="M97.6,21.1c0-1.6,0.4-2.8,1.3-3.5c0.7-0.6,1.6-1,2.7-1c1.2,0,2.1,0.4,2.9,1.2c0.7,0.8,1.1,1.8,1.1,3.2
		c0,1.1-0.2,2-0.5,2.6s-0.8,1.1-1.4,1.5c-0.6,0.4-1.3,0.5-2.1,0.5c-1.2,0-2.2-0.4-2.9-1.2C98,23.7,97.6,22.6,97.6,21.1z M99.1,21.1
		c0,1.1,0.2,1.9,0.7,2.5c0.5,0.5,1.1,0.8,1.8,0.8c0.7,0,1.3-0.3,1.8-0.8s0.7-1.4,0.7-2.5c0-1.1-0.2-1.9-0.7-2.4
		c-0.5-0.5-1.1-0.8-1.8-0.8c-0.7,0-1.3,0.3-1.8,0.8C99.3,19.2,99.1,20,99.1,21.1z"/>
	<path class="st2" d="M107.1,26.1l1.4,0.2c0.1,0.4,0.2,0.8,0.5,1c0.4,0.3,0.9,0.4,1.5,0.4c0.7,0,1.2-0.1,1.6-0.4
		c0.4-0.3,0.6-0.6,0.7-1.1c0.1-0.3,0.1-0.9,0.1-1.9c-0.6,0.7-1.4,1.1-2.4,1.1c-1.2,0-2.1-0.4-2.7-1.3c-0.6-0.9-1-1.9-1-3.1
		c0-0.8,0.1-1.6,0.4-2.3c0.3-0.7,0.7-1.2,1.3-1.6c0.6-0.4,1.2-0.6,2-0.6c1,0,1.8,0.4,2.5,1.2v-1h1.3v7.4c0,1.3-0.1,2.3-0.4,2.8
		c-0.3,0.6-0.7,1-1.3,1.3c-0.6,0.3-1.3,0.5-2.2,0.5c-1,0-1.9-0.2-2.5-0.7C107.4,27.8,107.1,27.1,107.1,26.1z M108.3,21
		c0,1.1,0.2,1.9,0.7,2.5c0.4,0.5,1,0.8,1.7,0.8c0.7,0,1.2-0.3,1.7-0.8s0.7-1.3,0.7-2.4c0-1.1-0.2-1.8-0.7-2.4
		c-0.5-0.5-1-0.8-1.7-0.8c-0.6,0-1.2,0.3-1.7,0.8C108.5,19.2,108.3,19.9,108.3,21z"/>
	<path class="st2" d="M121.2,15.2v-1.7h1.5v1.7H121.2z M121.2,25.4v-8.6h1.5v8.6H121.2z"/>
	<path class="st2" d="M124.8,25.4v-8.6h1.3V18c0.6-0.9,1.5-1.4,2.7-1.4c0.5,0,1,0.1,1.4,0.3s0.8,0.4,1,0.7c0.2,0.3,0.4,0.7,0.5,1.1
		c0.1,0.3,0.1,0.7,0.1,1.4v5.3h-1.5v-5.2c0-0.6-0.1-1-0.2-1.3c-0.1-0.3-0.3-0.5-0.6-0.7c-0.3-0.2-0.6-0.3-1-0.3
		c-0.6,0-1.2,0.2-1.6,0.6s-0.7,1.1-0.7,2.2v4.7H124.8z"/>
	<path class="st2" d="M140.9,25.4l-3.1-11.9h1.6l1.8,7.8c0.2,0.8,0.4,1.6,0.5,2.4c0.3-1.3,0.5-2,0.5-2.2l2.3-8h1.9l1.7,6
		c0.4,1.5,0.7,2.9,0.9,4.2c0.2-0.7,0.3-1.6,0.6-2.6l1.9-7.6h1.6l-3.3,11.9h-1.5l-2.5-9c-0.2-0.8-0.3-1.2-0.4-1.4
		c-0.1,0.5-0.2,1-0.3,1.4l-2.5,9H140.9z"/>
	<path class="st2" d="M154.3,15.2v-1.7h1.5v1.7H154.3z M154.3,25.4v-8.6h1.5v8.6H154.3z"/>
	<path class="st2" d="M161.1,24.1l0.2,1.3c-0.4,0.1-0.8,0.1-1.1,0.1c-0.5,0-0.9-0.1-1.2-0.3s-0.5-0.4-0.6-0.7
		c-0.1-0.3-0.2-0.8-0.2-1.7V18h-1.1v-1.1h1.1v-2.1l1.4-0.9v3h1.5V18h-1.5v5c0,0.4,0,0.7,0.1,0.8c0.1,0.1,0.1,0.2,0.3,0.3
		c0.1,0.1,0.3,0.1,0.5,0.1C160.7,24.2,160.9,24.2,161.1,24.1z"/>
	<path class="st2" d="M162.6,25.4V13.6h1.5v4.3c0.7-0.8,1.5-1.2,2.6-1.2c0.6,0,1.2,0.1,1.7,0.4c0.5,0.3,0.8,0.6,1,1
		c0.2,0.4,0.3,1.1,0.3,1.9v5.4h-1.5V20c0-0.7-0.2-1.3-0.5-1.6c-0.3-0.3-0.8-0.5-1.3-0.5c-0.4,0-0.8,0.1-1.2,0.3
		c-0.4,0.2-0.7,0.5-0.8,0.9c-0.2,0.4-0.2,0.9-0.2,1.6v4.7H162.6z"/>
	<path class="st2" d="M182.1,20.8v-1.4l5,0v4.4c-0.8,0.6-1.6,1.1-2.4,1.4c-0.8,0.3-1.7,0.5-2.5,0.5c-1.2,0-2.2-0.2-3.2-0.7
		c-1-0.5-1.7-1.2-2.2-2.2c-0.5-0.9-0.7-2-0.7-3.2c0-1.2,0.2-2.2,0.7-3.2c0.5-1,1.2-1.7,2.1-2.2s1.9-0.7,3.1-0.7
		c0.9,0,1.6,0.1,2.3,0.4c0.7,0.3,1.2,0.7,1.6,1.2c0.4,0.5,0.7,1.1,0.9,1.9l-1.4,0.4c-0.2-0.6-0.4-1.1-0.7-1.4
		c-0.3-0.3-0.6-0.6-1.1-0.8c-0.5-0.2-1-0.3-1.6-0.3c-0.7,0-1.3,0.1-1.9,0.3c-0.5,0.2-0.9,0.5-1.3,0.9c-0.3,0.4-0.6,0.7-0.7,1.2
		c-0.3,0.7-0.5,1.5-0.5,2.4c0,1.1,0.2,1.9,0.5,2.7c0.4,0.7,0.9,1.2,1.6,1.6c0.7,0.3,1.4,0.5,2.2,0.5c0.7,0,1.3-0.1,2-0.4
		s1.1-0.5,1.5-0.8v-2.2H182.1z"/>
	<path class="st2" d="M188.7,21.1c0-1.6,0.4-2.8,1.3-3.5c0.7-0.6,1.6-1,2.7-1c1.2,0,2.1,0.4,2.9,1.2c0.8,0.8,1.1,1.8,1.1,3.2
		c0,1.1-0.2,2-0.5,2.6s-0.8,1.1-1.4,1.5c-0.6,0.4-1.3,0.5-2.1,0.5c-1.2,0-2.2-0.4-2.9-1.2C189.1,23.7,188.7,22.6,188.7,21.1z
		 M190.2,21.1c0,1.1,0.2,1.9,0.7,2.5c0.5,0.5,1.1,0.8,1.8,0.8c0.7,0,1.3-0.3,1.8-0.8c0.5-0.5,0.7-1.4,0.7-2.5c0-1.1-0.2-1.9-0.7-2.4
		s-1.1-0.8-1.8-0.8c-0.7,0-1.3,0.3-1.8,0.8C190.5,19.2,190.2,20,190.2,21.1z"/>
	<path class="st2" d="M197.9,21.1c0-1.6,0.4-2.8,1.3-3.5c0.7-0.6,1.6-1,2.7-1c1.2,0,2.1,0.4,2.9,1.2c0.8,0.8,1.1,1.8,1.1,3.2
		c0,1.1-0.2,2-0.5,2.6s-0.8,1.1-1.4,1.5c-0.6,0.4-1.3,0.5-2.1,0.5c-1.2,0-2.2-0.4-2.9-1.2C198.3,23.7,197.9,22.6,197.9,21.1z
		 M199.4,21.1c0,1.1,0.2,1.9,0.7,2.5c0.5,0.5,1.1,0.8,1.8,0.8c0.7,0,1.3-0.3,1.8-0.8c0.5-0.5,0.7-1.4,0.7-2.5c0-1.1-0.2-1.9-0.7-2.4
		s-1.1-0.8-1.8-0.8c-0.7,0-1.3,0.3-1.8,0.8C199.7,19.2,199.4,20,199.4,21.1z"/>
	<path class="st2" d="M207.4,26.1l1.4,0.2c0.1,0.4,0.2,0.8,0.5,1c0.4,0.3,0.9,0.4,1.5,0.4c0.7,0,1.2-0.1,1.6-0.4
		c0.4-0.3,0.6-0.6,0.7-1.1c0.1-0.3,0.1-0.9,0.1-1.9c-0.6,0.7-1.4,1.1-2.4,1.1c-1.2,0-2.1-0.4-2.7-1.3c-0.6-0.9-1-1.9-1-3.1
		c0-0.8,0.1-1.6,0.4-2.3s0.7-1.2,1.3-1.6s1.2-0.6,2-0.6c1,0,1.8,0.4,2.5,1.2v-1h1.3v7.4c0,1.3-0.1,2.3-0.4,2.8
		c-0.3,0.6-0.7,1-1.3,1.3c-0.6,0.3-1.3,0.5-2.2,0.5c-1,0-1.9-0.2-2.5-0.7S207.4,27.1,207.4,26.1z M208.6,21c0,1.1,0.2,1.9,0.7,2.5
		c0.4,0.5,1,0.8,1.7,0.8c0.7,0,1.2-0.3,1.7-0.8s0.7-1.3,0.7-2.4c0-1.1-0.2-1.8-0.7-2.4c-0.5-0.5-1-0.8-1.7-0.8
		c-0.6,0-1.2,0.3-1.6,0.8C208.9,19.2,208.6,19.9,208.6,21z"/>
	<path class="st2" d="M216.9,25.4V13.6h1.5v11.9H216.9z"/>
	<path class="st2" d="M226.5,22.6l1.5,0.2c-0.2,0.9-0.7,1.6-1.3,2s-1.5,0.7-2.5,0.7c-1.3,0-2.3-0.4-3-1.2c-0.7-0.8-1.1-1.9-1.1-3.3
		c0-1.4,0.4-2.6,1.1-3.4c0.7-0.8,1.7-1.2,2.9-1.2c1.1,0,2.1,0.4,2.8,1.2c0.7,0.8,1.1,1.9,1.1,3.3c0,0.1,0,0.2,0,0.4h-6.4
		c0.1,0.9,0.3,1.7,0.8,2.2c0.5,0.5,1.1,0.8,1.8,0.8c0.5,0,1-0.1,1.4-0.4C225.9,23.7,226.2,23.3,226.5,22.6z M221.7,20.3h4.8
		c-0.1-0.7-0.2-1.3-0.5-1.6c-0.5-0.6-1.1-0.8-1.8-0.8c-0.7,0-1.2,0.2-1.7,0.7C222,18.9,221.7,19.5,221.7,20.3z"/>
	<path class="st2" d="M232.9,23.5v-3.3h-3.2v-1.4h3.2v-3.2h1.4v3.2h3.2v1.4h-3.2v3.3H232.9z"/>
</g>
<g>
	<path class="st3" d="M31.6,20.6h-3c-0.2,0-0.2,0-0.2,0.2c0,0.9,0,1.8,0,2.8c0,0.2-0.1,0.2-0.2,0.2c-0.4,0-0.9,0-1.3,0v-0.1v-2.9
		v-0.1c-0.1-0.1-0.2,0-0.2,0h-2.8c-0.1,0-0.2,0-0.2-0.2c0-0.4,0-0.8,0-1.2c0-0.1,0-0.2,0.2-0.2h2.8c0.1,0,0.2,0,0.2,0
		c0-0.1,0-0.3,0-0.4v-2.5c0-0.1,0-0.2,0-0.2l0,0l0,0c0.1,0,0.3,0,0.4,0c0.4,0,0.8,0,1.2,0c0,1,0,1.9,0,3c0,0.2,0.1,0.2,0.3,0.2h3
		c0,0.1,0.1,0.1,0,0.2v1.2C31.7,20.5,31.6,20.6,31.6,20.6z"/>
	<path class="st3" d="M23,26.3L23,26.3C23,26.2,23,26.2,23,26.3c-0.3-1.1-0.8-2-1.6-2.8c0-0.1-0.1-0.2-0.2-0.2
		c-0.1-0.1-0.1-0.1-0.2-0.2c-0.6-0.5-1.2-0.9-1.8-1.5c-0.1-0.1-0.2-0.2-0.3-0.3c-0.2-0.2-0.3-0.4-0.3-0.6c0-0.2,0-0.3,0-0.5
		c0.1-0.4,0.3-0.7,0.6-1c0.4-0.4,0.8-0.7,1.2-1c0.1-0.1,0.2-0.1,0.2-0.2l0.1-0.1c0.1-0.1,0.2-0.1,0.2-0.3c0.4-0.5,0.7-1,0.9-1.6
		c0.1-0.4,0.2-0.9,0.2-1.4c0.1,0,0-0.1,0-0.2c0-0.1,0-0.3,0-0.4c0-0.1,0-0.3-0.1-0.4c-0.2-0.7-0.5-1.4-0.9-2
		c-0.3-0.4-0.7-0.8-1.1-1.1c0-0.2,0.1-0.1,0.2-0.1c0.5,0,0.9,0,1.4,0c0.1,0,0.2,0,0.2-0.1l1-0.5c0.3-0.2,0.7-0.4,1-0.7
		c0-0.1-0.1,0-0.2,0h-6.3c-0.1,0-0.1,0-0.2,0l-0.9,0.1H16c-0.1,0-0.1,0-0.2,0h-0.1l0,0c-1.4,0.2-2.9,0.8-4,1.7
		c-0.1,0-0.2,0.1-0.2,0.2l-0.3,0.3c-0.1,0-0.1,0.1-0.1,0.1c-0.6,0.7-1,1.5-1.2,2.3c0,0.1,0,0.2-0.1,0.2c-0.1,0.2-0.1,0.5-0.1,0.7
		c0,0.2,0,0.5,0,0.7c0,0.2,0,0.3,0.1,0.4c0.1,0.7,0.4,1.4,0.9,2c0.1,0.1,0.2,0.2,0.2,0.4c0.2,0.2,0.4,0.4,0.6,0.6
		c0.7,0.6,1.6,0.9,2.5,1.1c0.1,0.1,0.1,0,0.2,0h0.3c0.3,0,0.6,0,0.9,0c0.1,0,0.2,0,0.2,0c0.1,0,0.3,0,0.2,0.2
		c-0.1,0.2-0.1,0.4-0.2,0.6v0.1c0,0.9,0.3,1.7,0.9,2.4h-1c-0.1,0-0.2,0-0.2,0c-0.1,0-0.2,0-0.3,0c-0.1,0-0.3,0-0.4,0s-0.2,0-0.2,0.1
		l-0.6,0.1h-0.1l0,0c-0.4,0.1-0.8,0.2-1.2,0.3c-1,0.3-2,0.8-3,1.5c-0.1,0-0.2,0.1-0.2,0.2l-0.2,0.2C9,25.7,9,25.8,9,25.9
		c-0.4,0.5-0.7,1-0.9,1.6c0,0.1,0,0.2-0.1,0.3s0,0.2,0,0.3c0,0.1,0,0.2,0,0.4c0,0,0,0,0,0.1c0,0.1,0,0.3,0,0.5c0,0,0,0,0,0.1l0,0
		c0,0,0,0,0,0.1c0.1,0.8,0.6,1.6,1.2,2.2c0.4,0.4,0.9,0.7,1.4,0.9c0.6,0.3,1.3,0.5,2,0.6h0.1c0.1,0,0.1,0,0.2,0h0.1
		c0.2,0,0.4,0,0.6,0c0.1,0,0.3,0,0.4,0c0.3,0,0.7,0,1,0l1-0.1h0.1c0.1,0,0.1,0,0.2,0h0.1l0.6-0.1c1.1-0.2,2.1-0.6,3.1-1.2
		c0.7-0.5,1.4-1.1,1.8-1.9c0.3-0.6,0.6-1.2,0.7-1.9v-0.1C23,27.1,23,26.7,23,26.3z M14,18.1c-1-1.1-1.6-2.5-1.7-4.1
		c-0.1-0.7,0-1.4,0.2-2c0.3-0.9,1.1-1.6,2-1.8c0.1-0.1,0.3-0.1,0.4-0.1c0.2,0,0.3,0,0.5,0c0.6,0.1,1.2,0.3,1.7,0.8
		c1.3,1.3,2,3.2,2,5c0,0.3,0,0.6-0.1,0.9c-0.1,0,0,0.1,0,0.1c-0.2,1-1,1.8-2,2C16,19.3,14.9,18.9,14,18.1L14,18.1z M20.9,29
		C20.8,29,20.9,29,20.9,29c-0.1,0.9-0.7,1.7-1.4,2.1c-0.6,0.4-1.3,0.6-2,0.7c-0.1,0-0.3,0-0.4,0c-0.6,0.1-1.3,0.1-1.9,0
		c-0.1,0-0.3,0-0.4-0.1c-0.6-0.1-1.2-0.2-1.8-0.5c-1-0.5-1.8-1.4-2-2.5c-0.1-0.4-0.1-0.9,0-1.3c0.1,0,0,0,0-0.1
		c0.1-0.6,0.5-1.1,0.9-1.5c0.6-0.5,1.3-0.8,2-1c0.2-0.1,0.4-0.1,0.6-0.1h0.1c0.3-0.1,0.6-0.1,0.8-0.1c0.4,0,0.9-0.1,1.3-0.1
		c0.3,0,0.6,0,0.8,0.1c0.2,0,0.3,0.1,0.5,0.3c0.5,0.4,1,0.8,1.5,1.2c0,0.1,0.1,0.1,0.2,0.1c0.3,0.2,0.5,0.5,0.7,0.8
		c0.2,0.3,0.4,0.6,0.4,1c0,0.1,0,0.2,0,0.4c0,0.2,0,0.4,0,0.5C20.9,28.8,20.9,28.9,20.9,29L20.9,29z"/>
</g>
</svg>
