<svg xmlns="http://www.w3.org/2000/svg" viewBox="0 0 145 37"><defs><style>.cls-1{fill:#fff;}</style></defs><title>reverse</title><g id="Login"><path class="cls-1" d="M143.93,19a.15.15,0,0,0,.13,0v4.67a.3.3,0,0,0-.13,0,.82.82,0,0,1-.23-.65c0-1.13,0-2.26,0-3.4a.85.85,0,0,1,.23-.65"/><path class="cls-1" d="M144.06,7.72l-.05,0h-.07a.82.82,0,0,1-.24-.64c0-1.1,0-2.21,0-3.31a.82.82,0,0,1,.23-.65l.13,0Z"/><path class="cls-1" d="M116.4,2.38a1.3,1.3,0,0,1-1.27,0Z"/><path class="cls-1" d="M117.54,2.38c.16.27.46.18.69.22A12.63,12.63,0,0,1,123.6,5a1,1,0,0,1,.23,1.43c-.64.93-1.29,1.85-1.94,2.77-.46.65-.71.69-1.41.26A9.49,9.49,0,0,0,115,7.91a6.1,6.1,0,0,0-1,.17.94.94,0,0,0-.73.78c-.06.46.25.69.6.87a11.3,11.3,0,0,0,3.37,1A14.86,14.86,0,0,1,121,11.85c3.39,1.62,4.49,4.64,3.48,8.08-.75,2.55-2.76,3.75-5.23,4.18a14.14,14.14,0,0,1-11.61-2.74c-.69-.54-.73-.78-.21-1.52.62-.92,1.26-1.82,1.88-2.74a.87.87,0,0,1,1.37-.29,11.54,11.54,0,0,0,5.44,2,4.51,4.51,0,0,0,2.09-.26,1.19,1.19,0,0,0,.84-1.19c0-.56-.45-.75-.88-.87-1.36-.41-2.78-.53-4.16-.83a13,13,0,0,1-3.27-1.12,5.6,5.6,0,0,1-3.31-4.9,6.06,6.06,0,0,1,2.88-6,8.06,8.06,0,0,1,2.9-1.07c.25-.05.57,0,.75-.26h1.13a2.49,2.49,0,0,0,1.27,0Z"/><path class="cls-1" d="M23.3,13.45V4c0-1.09.15-1.25,1.21-1.25h13.8c1,0,1.19.17,1.2,1.18s0,2.13,0,3.19c0,.79-.21,1-1,1H30.14c-.89,0-1.08.18-1.08,1.07v.49c0,.88.19,1.06,1.1,1.07h7c1.05,0,1.18.13,1.18,1.18s0,2.17,0,3.26c0,.74-.23,1-1,1H30.14c-.95,0-1.08.15-1.08,1.2s.12,1.28,1.08,1.28h8.2c1,0,1.16.18,1.17,1.15s0,2.22,0,3.33c0,.64-.28,1-.93,1H24.22c-.71,0-.91-.24-.92-1V13.45"/><path class="cls-1" d="M67.28,13.42V3.86c0-.87.19-1.06,1.09-1.06h14c.91,0,1.07.17,1.08,1.07,0,1.11,0,2.22,0,3.33,0,.79-.17,1-1,1H74.21c-1,0-1.16.13-1.16,1.12v.5c0,.81.19,1,1,1h7.08c1.06,0,1.17.11,1.17,1.18v3.18c0,.85-.19,1-1,1H74.12c-.94,0-1.07.13-1.07,1.06v.43c0,.83.16,1,1,1,2.71,0,5.42,0,8.14,0,1.15,0,1.26.11,1.27,1.24s0,2.17,0,3.26c0,.66-.28.94-.93.94H68.23c-.73,0-1-.24-1-1v-9.7"/><path class="cls-1" d="M143.88,3.17c0,1.53,0,3.07,0,4.6-.18.46-.59.38-1,.38h-8.2c-1,0-1.17.15-1.17,1.27s.13,1.36,1.17,1.36h7c1,0,1.12.15,1.12,1.09v3.18c0,1-.18,1.14-1.17,1.14h-7.07c-.89,0-1.05.18-1.05,1.17s.12,1.31,1.05,1.31c2.76,0,5.52,0,8.28,0,.36,0,.77-.07,1,.36,0,1.57,0,3.14,0,4.7-.17.37-.51.37-.84.37H128.75c-.65,0-.93-.29-.93-.95q0-9.72,0-19.44c0-.66.29-.94.94-.94H143c.34,0,.67,0,.84.38"/><path class="cls-1" d="M53.2,24.11c-.56,0-1.13,0-1.69,0-1.1,0-1.57-.73-1.14-1.72q4.07-9.24,8.1-18.49A1.6,1.6,0,0,1,60.2,2.78c1.34.05,2.69,0,4,0,.76,0,1,.28.65,1L56.22,23.25a1.35,1.35,0,0,1-1.39.87c-.54,0-1.08,0-1.63,0"/><path class="cls-1" d="M49.55,21.83c-2.69-6.09-5.33-12-7.95-18-.34-.76-.15-1.05.68-1.05,1.39,0,2.78,0,4.17,0a1.35,1.35,0,0,1,1.38.89Q50.16,9,52.5,14.37a.69.69,0,0,1,.07.6c-1,2.23-2,4.47-3,6.86"/><path class="cls-1" d="M20.86,23c-1.35-1.75-2.7-3.51-4.07-5.25-.42-.53-.39-.91.17-1.27a5,5,0,0,0,1.4-1.39A7.89,7.89,0,0,0,19,6.85c-1.34-2.8-3.77-4-6.77-4s-5.8,0-8.7,0c-.94,0-1.12.18-1.12,1.11V23.08c0,.81.21,1,1,1,1.27,0,2.55,0,3.82,0,.74,0,1-.24,1-1,0-1.27,0-2.54,0-3.82,0-.44-.18-1,.42-1.22a1.82,1.82,0,0,1,1.86.33,4,4,0,0,1,.43.56C12,20.41,13,21.86,14.08,23.31a1.86,1.86,0,0,0,1.63.81c1.54,0,3.07,0,4.6,0,.29,0,.64.12.83-.23s-.08-.62-.28-.87M12.08,12.63c-1,.06-2.07,0-3.1,0a.7.7,0,0,1-.77-.8V9A.7.7,0,0,1,9,8.16h2.89a2.13,2.13,0,0,1,2.2,2.18,2.1,2.1,0,0,1-2,2.29"/><path class="cls-1" d="M105.61,23c-1.36-1.75-2.71-3.51-4.08-5.25a.75.75,0,0,1,.19-1.28,4.76,4.76,0,0,0,1.4-1.39,7.87,7.87,0,0,0,.64-8.25c-1.34-2.8-3.78-4-6.79-4s-5.8,0-8.7,0c-.9,0-1.07.17-1.07,1.08V23.06c0,.86.18,1.05,1,1.05,1.23,0,2.46,0,3.68,0,.85,0,1-.19,1-1.05V19c0-.47.09-.87.64-.94a1.94,1.94,0,0,1,2,.82c1,1.51,2.16,3,3.23,4.47a1.85,1.85,0,0,0,1.63.81h4.6c.29,0,.65.11.83-.23s-.08-.62-.28-.88M96.72,12.64c-1,0-2,0-3,0a.76.76,0,0,1-.82-.85c0-.94,0-1.88,0-2.83a.74.74,0,0,1,.85-.81H96.6a2.17,2.17,0,0,1,2.24,2.29,2.13,2.13,0,0,1-2.12,2.19"/><path class="cls-1" d="M87.52,28.73c-.44,0-.87-.35-1.31.07-.16.15-.27-.09-.2-.28.17-.49.45-.81,1-.63.32.1.67.28,1-.11,0-.05.17-.06.25,0s.09.15.06.24c-.13.39-.3.75-.8.75"/><path class="cls-1" d="M124.72,27.72c-.73.42-1,1.17-1.81,1.19.5-1.28.52-1.29,1.81-1.19"/><path class="cls-1" d="M144.06,35.05a2.11,2.11,0,0,1-2.49,1.18,1.83,1.83,0,0,1-1.47-1.52c-.16-1.05.2-1,.49-.92s.65-.23.75.26c0,.14,0,.28,0,.42,0,.35.06.68.48.76a.72.72,0,0,0,.91-.39.88.88,0,0,0,0-.71,2.26,2.26,0,0,0-.87-.84c-.38-.28-.77-.55-1.13-.86a1.88,1.88,0,0,1-.45-2.13,1.78,1.78,0,0,1,1.86-1,1.7,1.7,0,0,1,1.7,1.24c.06.19,0,.45.21.56v.42c-.84.36-1.14.26-1.53-.53a.58.58,0,0,0-.53-.39.32.32,0,0,0-.37.26.62.62,0,0,0,.25.61,9.35,9.35,0,0,0,1.25.92,2,2,0,0,1,.93,1.4Z"/><path class="cls-1" d="M54.15,32.64c0-.78,0-1.56,0-2.34s.62-1.18,1.35-.77q2,1.13,4,2.33c.74.43.74,1.1,0,1.54-1.33.8-2.68,1.58-4,2.34-.74.41-1.33.07-1.36-.77s0-1.56,0-2.33"/><path class="cls-1" d="M15.36,32.58c0-.76,0-1.51,0-2.27s.61-1.23,1.38-.81c1.35.77,2.7,1.54,4,2.34a.8.8,0,0,1,0,1.5c-1.35.82-2.72,1.6-4.1,2.38A.82.82,0,0,1,15.37,35c0-.8,0-1.6,0-2.4Z"/><path class="cls-1" d="M41.23,32.64c0-.78,0-1.55,0-2.33s.6-1.2,1.34-.79c1.38.77,2.74,1.56,4.1,2.37a.8.8,0,0,1,0,1.47q-2.05,1.23-4.16,2.41c-.69.38-1.27,0-1.29-.79s0-1.56,0-2.34"/><path class="cls-1" d="M2.44,32.62c0-.75,0-1.51,0-2.26S3,29.1,3.8,29.53c1.35.76,2.7,1.54,4,2.34.73.43.72,1.1,0,1.54q-2,1.19-4,2.33c-.74.41-1.31.07-1.33-.78s0-1.56,0-2.34"/><path class="cls-1" d="M28.31,32.61c0-.78,0-1.56,0-2.33s.58-1.16,1.28-.77c1.38.76,2.75,1.56,4.1,2.36a.81.81,0,0,1,0,1.51c-1.35.81-2.72,1.6-4.09,2.37-.74.41-1.3.06-1.31-.81s0-1.55,0-2.33"/><path class="cls-1" d="M70.54,35.44a1.7,1.7,0,0,1-2,.76,1.59,1.59,0,0,1-1.16-1.45,10.65,10.65,0,0,1,0-3.94,1.88,1.88,0,0,1,2.27-1.51c1.15.1,1.76.66,1.82,1.68,0,.23.14.6-.3.54s-.8.32-.86-.36a.84.84,0,0,0-.91-.88c-.59,0-.75.45-.81,1a12,12,0,0,0,0,3.17c.06.36.16.7.58.79a.75.75,0,0,0,.87-.29,1.88,1.88,0,0,0,.21-1.23c0-.14-.17-.16-.28-.15-.6.09-.55-.3-.55-.69,0-.55.41-.35.66-.35,1.38,0,1.38,0,1.38,1.32,0,.59,0,1.18,0,1.77,0,.24.09.53-.34.55s-.57-.12-.52-.7"/><path class="cls-1" d="M134.2,32.09c0,.71,0,1.42,0,2.13a2.05,2.05,0,0,1-1.62,2,3.08,3.08,0,0,1-1.45-.1,1.32,1.32,0,0,1-1-1.16,39.7,39.7,0,0,1-.09-5.23c0-.53.5-.26.77-.31s.47.06.47.43c0,1.32,0,2.64,0,4,0,1.08.21,1.42.84,1.43s.85-.34.86-1.42c0-1.29,0-2.59,0-3.89,0-.48.21-.53.59-.52s.7,0,.67.53c-.05.73,0,1.46,0,2.19Z"/><path class="cls-1" d="M118.64,33.79c.44-.09.66,0,.62.54s0,.84.56.92a.71.71,0,0,0,.83-.38.92.92,0,0,0-.29-1.15c-.53-.42-1.1-.8-1.63-1.24a1.88,1.88,0,0,1-.46-2.3,1.92,1.92,0,0,1,2.14-.85A1.64,1.64,0,0,1,121.83,31c0,.23.09.54-.29.47s-.81.31-.88-.34a.85.85,0,0,0-.24-.64.68.68,0,0,0-1,0,.6.6,0,0,0,0,.89,6.9,6.9,0,0,0,1.46,1.1,2.15,2.15,0,0,1,1,1.74,1.77,1.77,0,0,1-1.81,2.05A1.82,1.82,0,0,1,118,34.5c0-.5,0-.86.65-.71"/><path class="cls-1" d="M77,33.78c.46-.09.64.07.63.56s0,.84.56.91a.72.72,0,0,0,.83-.39.89.89,0,0,0-.29-1.13c-.52-.42-1.07-.78-1.58-1.2a1.81,1.81,0,0,1,1.49-3.22,1.67,1.67,0,0,1,1.57,1.63c0,.23.14.6-.29.54s-.87.34-.91-.39c0-.39-.14-.7-.58-.75a.6.6,0,0,0-.72.31.77.77,0,0,0,.35,1c.45.35.93.64,1.38,1a2.22,2.22,0,0,1,.65,2.83,2.27,2.27,0,0,1-2.73.65,2,2,0,0,1-1-2.08c.12-.39.43-.18.64-.24"/><path class="cls-1" d="M102.39,32.78c0-.92,0-1.84,0-2.76,0-.48.16-.6.61-.59.75,0,1.5,0,2.26,0,.41,0,.57.1.58.55s-.17.62-.62.57a5.23,5.23,0,0,0-.56,0c-1,0-1.24.3-1,1.29,0,.22.16.25.34.25.35,0,.71,0,1.06,0s.64,0,.64.55-.27.56-.65.53a4.17,4.17,0,0,1-.5,0c-.76-.14-1,.19-.9.91.07,1.05-.13.91,1,.92a6.59,6.59,0,0,0,.77,0c.42,0,.53.14.52.53s0,.63-.51.61c-.83,0-1.65,0-2.48,0-.4,0-.52-.13-.51-.53,0-.94,0-1.89,0-2.83"/><path class="cls-1" d="M72.34,32.8c0-.92,0-1.84,0-2.76,0-.44.1-.63.58-.61.8,0,1.6,0,2.4,0,.49,0,.44.29.45.6s0,.56-.44.52-.67,0-1,0c-.68-.1-.81.2-.81.82s.15.82.75.74c.25,0,.51,0,.77,0s.59.08.58.54-.15.6-.57.54a1.62,1.62,0,0,0-.22,0c-1.37,0-1.36,0-1.3,1.37,0,.39.17.48.52.47s.7,0,1.06,0,.71,0,.7.56-.25.59-.68.58c-.73,0-1.46,0-2.19,0-.45,0-.63-.09-.61-.59,0-.91,0-1.83,0-2.75"/><path class="cls-1" d="M113.94,32.74c0-.92,0-1.84,0-2.76,0-.44.13-.56.56-.55.79,0,1.6,0,2.4,0,.44,0,.48.22.48.57s0,.59-.49.55-.75,0-1.12,0c-.71-.1-.61.36-.61.78s-.09.89.61.78c.27,0,.56,0,.84,0,.45-.05.63.09.63.57s-.25.54-.62.51a5.42,5.42,0,0,1-.57,0c-.75-.13-1,.19-.9.91.07,1-.14.92,1,.92a4.42,4.42,0,0,0,.63,0c.44,0,.68,0,.68.58s-.31.56-.71.56c-.72,0-1.46,0-2.18,0-.45,0-.63-.08-.6-.58,0-.94,0-1.88,0-2.82"/><path class="cls-1" d="M82.15,33.35c0-.68-.05-1.37,0-2.05s-.15-.87-.77-.76-.72-.09-.68-.64c0-.39.18-.47.52-.46,1,0,2.07,0,3.11,0,.43,0,.5.19.49.56s0,.56-.47.57c-1,0-1,0-1,1,0,1.34,0,2.69,0,4,0,.58-.27.57-.68.59s-.62-.14-.59-.61c0-.73,0-1.46,0-2.19"/><path class="cls-1" d="M122.8,32.71c0-.91,0-1.83,0-2.75,0-.56.3-.52.67-.52s.62,0,.61.49c0,1.91,0,3.81,0,5.72,0,.51-.27.49-.62.49s-.68,0-.66-.53c0-1,0-1.93,0-2.9"/><path class="cls-1" d="M112.38,32.69A2,2,0,0,0,113,30.4c-.27-.8-1-.91-1.65-.94s-1.27,0-1.91,0c-.35,0-.44.14-.44.46,0,1.93,0,3.87,0,5.8,0,.5.31.43.61.43s.61,0,.59-.45c0-.68,0-1.36,0-2,0-.15-.06-.32.16-.42a1.11,1.11,0,0,1,1.51.89c0,.26,0,.52,0,.78,0,1.37,0,1.37,1.4,1.22,0,0,0,0,.08-.06-.58-1,.25-2.48-1-3.35m-1.59-.42c-.91.06-.51-.6-.62-1,.13-.33-.3-1,.54-.91s1.16.25,1.16.95-.27.89-1.08,1"/><path class="cls-1" d="M129.08,30.9a1.54,1.54,0,0,0-1.59-1.41c-.63,0-1.27,0-1.9-.06s-.6.16-.58.61c0,.92,0,1.84,0,2.75,0,.38,0,.76,0,1.13,0,.72-.33,1.71.15,2.09s1.49.13,2.26.07c1-.09,1.37-.39,1.58-1.32a10.44,10.44,0,0,0,.07-3.86m-1.16,1.5c0,.61,0,1.22-.07,1.83a.89.89,0,0,1-.75.9c-.78.12-.89,0-.9-.76V32.74c0-.52,0-1,0-1.55,0-.27-.21-.69.26-.75s1-.1,1.27.49a3.49,3.49,0,0,1,.18,1.47"/><path class="cls-1" d="M101.52,31a1.58,1.58,0,0,0-1.66-1.51c-.63,0-1.27,0-1.91,0-.39,0-.53.11-.52.52,0,.92,0,1.84,0,2.76V34c0,2.31,0,2.31,2.37,2.09,1-.1,1.44-.41,1.65-1.42a10.71,10.71,0,0,0,.07-3.66m-1.37,3.5a.79.79,0,0,1-.68.62c-.79.13-.89.05-.89-.75,0-1.06,0-2.12,0-3.18,0-.27-.26-.74.31-.77s1,0,1.23.58a6.3,6.3,0,0,1,.17,1.75,6.6,6.6,0,0,1-.15,1.75"/><path class="cls-1" d="M94.15,32.77a7.58,7.58,0,0,0-.14-1.9,1.83,1.83,0,0,0-1.94-1.59A1.86,1.86,0,0,0,90,30.79a10.21,10.21,0,0,0,0,4,2.07,2.07,0,0,0,4-.13,7.54,7.54,0,0,0,.14-1.9m-1.26.06a10.35,10.35,0,0,1-.12,1.76.74.74,0,0,1-.76.69.72.72,0,0,1-.79-.65,11.61,11.61,0,0,1,0-3.72.7.7,0,0,1,.74-.63.74.74,0,0,1,.79.65,9.35,9.35,0,0,1,.13,1.9"/><path class="cls-1" d="M139.13,30.66a1.77,1.77,0,0,0-2-1.38,1.81,1.81,0,0,0-2,1.38,11.55,11.55,0,0,0-.23,2.17c0,.5.08,1.07.13,1.63a2.08,2.08,0,0,0,.11.48,1.83,1.83,0,0,0,2,1.35,1.76,1.76,0,0,0,1.91-1.35,9.52,9.52,0,0,0,0-4.28M138,34.6a.74.74,0,0,1-.77.68.73.73,0,0,1-.78-.67,12.07,12.07,0,0,1,0-3.65.73.73,0,0,1,.77-.68.74.74,0,0,1,.78.67,10.12,10.12,0,0,1,.13,1.83A11.06,11.06,0,0,1,138,34.6"/><path class="cls-1" d="M89.34,35.52c-.38-1.77-.83-3.53-1.18-5.31-.12-.65-.37-.91-1-.73-.67-.25-.87.14-1,.74-.36,1.7-.76,3.4-1.13,5.1-.19.82,0,1,.81.81.53-.11.39-.59.43-.91.08-.61.32-.81.94-.79s.75.14.78.65a4.19,4.19,0,0,0,.13.69c.19.69.75.33,1.12.33s.18-.4.14-.58m-2.13-2.06c-.25,0-.64.13-.55-.38.12-.68.25-1.36.38-2h.15c.12.66.22,1.34.38,2,.09.37,0,.49-.36.45"/></g></svg>